<svg width="44" height="44" viewBox="0 0 44 44" fill="none" xmlns="http://www.w3.org/2000/svg">
<path d="M8.25 28.875V27.5H5.5V28.875C5.5 31.4277 6.51406 33.8759 8.3191 35.6809C10.1241 37.4859 12.5723 38.5 15.125 38.5H19.25V35.75H15.125C13.3016 35.75 11.553 35.0257 10.2636 33.7364C8.97433 32.447 8.25 30.6984 8.25 28.875ZM33 15.125V16.5H35.75V15.125C35.75 12.5723 34.7359 10.1241 32.9309 8.3191C31.1259 6.51406 28.6777 5.5 26.125 5.5H22V8.25H26.125C27.0278 8.25 27.9218 8.42783 28.7559 8.77333C29.5901 9.11883 30.348 9.62524 30.9864 10.2636C31.6248 10.902 32.1312 11.6599 32.4767 12.4941C32.8222 13.3282 33 14.2222 33 15.125ZM15.125 15.125H6.875C5.78098 15.125 4.73177 15.5596 3.95818 16.3332C3.1846 17.1068 2.75 18.156 2.75 19.25V22H5.5V19.25C5.5 18.8853 5.64487 18.5356 5.90273 18.2777C6.16059 18.0199 6.51033 17.875 6.875 17.875H15.125C15.4897 17.875 15.8394 18.0199 16.0973 18.2777C16.3551 18.5356 16.5 18.8853 16.5 19.25V22H19.25V19.25C19.25 18.156 18.8154 17.1068 18.0418 16.3332C17.2682 15.5596 16.219 15.125 15.125 15.125ZM11 13.75C12.0878 13.75 13.1512 13.4274 14.0556 12.8231C14.9601 12.2187 15.6651 11.3598 16.0813 10.3548C16.4976 9.34977 16.6065 8.2439 16.3943 7.17701C16.1821 6.11011 15.6583 5.1301 14.8891 4.36092C14.1199 3.59173 13.1399 3.0679 12.073 2.85568C11.0061 2.64346 9.90024 2.75238 8.89524 3.16867C7.89025 3.58495 7.03126 4.2899 6.42692 5.19437C5.82257 6.09884 5.5 7.16221 5.5 8.25C5.5 9.70869 6.07946 11.1076 7.11091 12.1391C8.14236 13.1705 9.54131 13.75 11 13.75ZM11 5.5C11.5439 5.5 12.0756 5.66129 12.5278 5.96346C12.9801 6.26564 13.3325 6.69513 13.5407 7.19762C13.7488 7.70012 13.8033 8.25305 13.6972 8.7865C13.5911 9.31995 13.3291 9.80995 12.9445 10.1945C12.5599 10.5791 12.0699 10.8411 11.5365 10.9472C11.0031 11.0533 10.4501 10.9988 9.94762 10.7907C9.44512 10.5825 9.01563 10.2301 8.71346 9.77782C8.41128 9.32559 8.25 8.7939 8.25 8.25C8.25 7.52066 8.53973 6.82118 9.05546 6.30546C9.57118 5.78973 10.2707 5.5 11 5.5ZM37.125 34.375H28.875C27.781 34.375 26.7318 34.8096 25.9582 35.5832C25.1846 36.3568 24.75 37.406 24.75 38.5V41.25H27.5V38.5C27.5 38.1353 27.6449 37.7856 27.9027 37.5277C28.1606 37.2699 28.5103 37.125 28.875 37.125H37.125C37.4897 37.125 37.8394 37.2699 38.0973 37.5277C38.3551 37.7856 38.5 38.1353 38.5 38.5V41.25H41.25V38.5C41.25 37.406 40.8154 36.3568 40.0418 35.5832C39.2682 34.8096 38.219 34.375 37.125 34.375ZM27.5 27.5C27.5 28.5878 27.8226 29.6512 28.4269 30.5556C29.0313 31.4601 29.8902 32.1651 30.8952 32.5813C31.9002 32.9976 33.0061 33.1065 34.073 32.8943C35.1399 32.6821 36.1199 32.1583 36.8891 31.3891C37.6583 30.6199 38.1821 29.6399 38.3943 28.573C38.6065 27.5061 38.4976 26.4002 38.0813 25.3952C37.6651 24.3903 36.9601 23.5313 36.0556 22.9269C35.1512 22.3226 34.0878 22 33 22C31.5413 22 30.1424 22.5795 29.1109 23.6109C28.0795 24.6424 27.5 26.0413 27.5 27.5ZM35.75 27.5C35.75 28.0439 35.5887 28.5756 35.2865 29.0278C34.9844 29.4801 34.5549 29.8325 34.0524 30.0407C33.5499 30.2488 32.997 30.3033 32.4635 30.1972C31.9301 30.0911 31.4401 29.8291 31.0555 29.4445C30.6709 29.06 30.4089 28.5699 30.3028 28.0365C30.1967 27.5031 30.2512 26.9501 30.4593 26.4476C30.6675 25.9451 31.0199 25.5156 31.4722 25.2135C31.9244 24.9113 32.4561 24.75 33 24.75C33.7293 24.75 34.4288 25.0397 34.9445 25.5555C35.4603 26.0712 35.75 26.7707 35.75 27.5Z" fill="black"/>
</svg>
