<svg width="20" height="21" viewBox="0 0 20 21" fill="none" xmlns="http://www.w3.org/2000/svg">
<path d="M12.5 10.1551V5.50008H14.1667V3.83341C14.1667 3.39139 13.9911 2.96746 13.6785 2.6549C13.366 2.34234 12.942 2.16675 12.5 2.16675H7.5C7.05797 2.16675 6.63405 2.34234 6.32149 2.6549C6.00893 2.96746 5.83333 3.39139 5.83333 3.83341V5.50008H7.5V10.1551L5.24417 11.5776C5.08788 11.7338 5.00005 11.9458 5 12.1667V13.8334C5 14.0544 5.0878 14.2664 5.24408 14.4227C5.40036 14.579 5.61232 14.6667 5.83333 14.6667H9.16667V17.1667L10 18.8334L10.8333 17.1667V14.6667H14.1667C14.3877 14.6667 14.5996 14.579 14.7559 14.4227C14.9122 14.2664 15 14.0544 15 13.8334V12.1667C15 11.9458 14.9121 11.7338 14.7558 11.5776L12.5 10.1551Z" fill="black"/>
</svg>
