<svg width="44" height="44" viewBox="0 0 44 44" fill="none" xmlns="http://www.w3.org/2000/svg">
<path d="M39.8017 15.9683C42.0934 13.6767 41.0484 11 39.8017 9.69833L34.3017 4.19833C31.9917 1.90666 29.3334 2.95166 28.0317 4.19833L24.9151 7.33333H20.1667C16.6834 7.33333 14.6667 9.16666 13.6401 11.275L5.50007 19.415V26.7483L4.19841 28.0317C1.90674 30.3417 2.95174 33 4.19841 34.3017L9.69841 39.8017C10.6884 40.7917 11.7517 41.1583 12.7601 41.1583C14.0617 41.1583 15.2534 40.5167 15.9684 39.8017L20.9184 34.8333H27.5001C30.6167 34.8333 32.1934 32.89 32.7617 30.9833C34.8334 30.4333 35.9701 28.8567 36.4284 27.3167C39.2701 26.5833 40.3334 23.8883 40.3334 22V16.5H39.2517L39.8017 15.9683ZM36.6667 22C36.6667 22.825 36.3184 23.8333 34.8334 23.8333H33.0001V25.6667C33.0001 26.4917 32.6517 27.5 31.1667 27.5H29.3334V29.3333C29.3334 30.1583 28.9851 31.1667 27.5001 31.1667H19.4151L13.4017 37.18C12.8334 37.7117 12.5034 37.4 12.3017 37.1983L6.82007 31.735C6.28841 31.1667 6.60007 30.8367 6.80174 30.635L9.16674 28.2517V20.9183L12.8334 17.2517V20.1667C12.8334 22.385 14.3001 25.6667 18.3334 25.6667C22.3667 25.6667 23.8334 22.385 23.8334 20.1667H36.6667V22ZM37.1984 13.365L34.0817 16.5H20.1667V20.1667C20.1667 20.9917 19.8184 22 18.3334 22C16.8484 22 16.5001 20.9917 16.5001 20.1667V14.6667C16.5001 13.8233 16.8117 11 20.1667 11H26.4184L30.5984 6.82C31.1667 6.28833 31.4967 6.6 31.6984 6.80166L37.1801 12.265C37.7117 12.8333 37.4001 13.1633 37.1984 13.365Z" fill="black"/>
</svg>
