<svg width="44" height="44" viewBox="0 0 44 44" fill="none" xmlns="http://www.w3.org/2000/svg">
<path fill-rule="evenodd" clip-rule="evenodd" d="M25.6666 3.66667C27.1253 3.65354 28.5295 4.22041 29.5702 5.24258C30.6109 6.26474 31.203 7.65848 31.2161 9.11717C31.2292 10.5759 30.6624 11.98 29.6402 13.0208C28.618 14.0615 27.2243 14.6535 25.7656 14.6667L25.3659 15.8638C26.3113 16.4371 27.1319 17.1946 27.7788 18.0912C28.4257 18.9879 28.8857 20.0054 29.1316 21.0833H31.5498C31.971 20.1183 32.7116 19.3277 33.6472 18.8444C34.5827 18.3612 35.6561 18.2149 36.6869 18.43C37.7177 18.6451 38.6429 19.2086 39.3071 20.0257C39.9712 20.8428 40.3338 21.8637 40.3338 22.9167C40.3338 23.9696 39.9712 24.9905 39.3071 25.8076C38.6429 26.6247 37.7177 27.1882 36.6869 27.4033C35.6561 27.6185 34.5827 27.4721 33.6472 26.9889C32.7116 26.5057 31.971 25.7151 31.5498 24.75H29.1298C28.8245 26.0873 28.1906 27.3274 27.2854 28.358L28.5761 29.6487C29.5563 29.264 30.6391 29.2286 31.6424 29.5484C32.6457 29.8682 33.5082 30.5238 34.085 31.4047C34.6618 32.2857 34.9176 33.3384 34.8095 34.3859C34.7014 35.4333 34.2359 36.4116 33.4913 37.1562C32.7467 37.9007 31.7684 38.3662 30.721 38.4744C29.6736 38.5825 28.6208 38.3267 27.7399 37.7499C26.8589 37.1731 26.2034 36.3105 25.8835 35.3073C25.5637 34.304 25.5991 33.2212 25.9838 32.241L24.2714 30.5287C23.2616 30.9507 22.1778 31.1676 21.0833 31.1667C19.8236 31.1667 18.5806 30.8782 17.4496 30.3233L15.8528 32.241C16.4639 33.3853 16.6508 34.7089 16.3805 35.9777C16.1102 37.2465 15.4002 38.3789 14.3758 39.1749C13.3514 39.9708 12.0786 40.3791 10.7823 40.3274C9.48608 40.2758 8.24979 39.7676 7.29194 38.8927C6.33408 38.0178 5.71632 36.8325 5.5478 35.5462C5.37929 34.2599 5.67087 32.9555 6.37103 31.8634C7.07119 30.7713 8.13485 29.9618 9.37406 29.578C10.6133 29.1942 11.9483 29.2608 13.1431 29.766L14.5988 28.017C13.4525 26.5643 12.8304 24.7671 12.8333 22.9167C12.8333 21.5692 13.1559 20.2987 13.7279 19.1748L12.1366 17.8475C11.1951 18.3193 10.1199 18.4524 9.09171 18.2246C8.06356 17.9968 7.14524 17.4218 6.49118 16.5965C5.83712 15.7711 5.48723 14.7457 5.50036 13.6927C5.51348 12.6397 5.88883 11.6233 6.56326 10.8145C7.23769 10.0057 8.17007 9.45385 9.20358 9.25171C10.2371 9.04957 11.3087 9.2095 12.2381 9.7046C13.1676 10.1997 13.8982 10.9998 14.3071 11.9702C14.716 12.9407 14.7782 14.0224 14.4833 15.0333L16.0783 16.3607C17.7345 15.0914 19.8118 14.5002 21.8881 14.707L22.2878 13.508C21.383 12.8042 20.7207 11.8353 20.3935 10.7368C20.0662 9.6382 20.0904 8.46483 20.4626 7.38068C20.8349 6.29652 21.5365 5.35575 22.4696 4.68987C23.4026 4.02398 24.5203 3.66624 25.6666 3.66667ZM10.9999 33C10.5137 33 10.0474 33.1932 9.70359 33.537C9.35977 33.8808 9.16661 34.3471 9.16661 34.8333C9.16661 35.3196 9.35977 35.7859 9.70359 36.1297C10.0474 36.4735 10.5137 36.6667 10.9999 36.6667C11.4862 36.6667 11.9525 36.4735 12.2963 36.1297C12.6401 35.7859 12.8333 35.3196 12.8333 34.8333C12.8333 34.3471 12.6401 33.8808 12.2963 33.537C11.9525 33.1932 11.4862 33 10.9999 33ZM30.2499 33C30.0068 33 29.7737 33.0966 29.6018 33.2685C29.4299 33.4404 29.3333 33.6736 29.3333 33.9167C29.3333 34.1598 29.4299 34.3929 29.6018 34.5648C29.7737 34.7368 30.0068 34.8333 30.2499 34.8333C30.4931 34.8333 30.7262 34.7368 30.8981 34.5648C31.07 34.3929 31.1666 34.1598 31.1666 33.9167C31.1666 33.6736 31.07 33.4404 30.8981 33.2685C30.7262 33.0966 30.4931 33 30.2499 33ZM21.0833 18.3333C19.8677 18.3333 18.7019 18.8162 17.8424 19.6758C16.9828 20.5353 16.4999 21.7011 16.4999 22.9167C16.4999 24.1322 16.9828 25.298 17.8424 26.1576C18.7019 27.0171 19.8677 27.5 21.0833 27.5C22.2989 27.5 23.4646 27.0171 24.3242 26.1576C25.1837 25.298 25.6666 24.1322 25.6666 22.9167C25.6666 21.7011 25.1837 20.5353 24.3242 19.6758C23.4646 18.8162 22.2989 18.3333 21.0833 18.3333ZM35.7499 22C35.5068 22 35.2737 22.0966 35.1018 22.2685C34.9299 22.4404 34.8333 22.6736 34.8333 22.9167C34.8333 23.1598 34.9299 23.3929 35.1018 23.5648C35.2737 23.7368 35.5068 23.8333 35.7499 23.8333C35.9931 23.8333 36.2262 23.7368 36.3981 23.5648C36.57 23.3929 36.6666 23.1598 36.6666 22.9167C36.6666 22.6736 36.57 22.4404 36.3981 22.2685C36.2262 22.0966 35.9931 22 35.7499 22ZM10.0833 12.8333C9.84017 12.8333 9.60701 12.9299 9.4351 13.1018C9.26319 13.2737 9.16661 13.5069 9.16661 13.75C9.16661 13.9931 9.26319 14.2263 9.4351 14.3982C9.60701 14.5701 9.84017 14.6667 10.0833 14.6667C10.3264 14.6667 10.5596 14.5701 10.7315 14.3982C10.9034 14.2263 10.9999 13.9931 10.9999 13.75C10.9999 13.5069 10.9034 13.2737 10.7315 13.1018C10.5596 12.9299 10.3264 12.8333 10.0833 12.8333ZM25.6666 7.33333C25.1804 7.33333 24.7141 7.52649 24.3703 7.8703C24.0264 8.21412 23.8333 8.68044 23.8333 9.16667C23.8333 9.6529 24.0264 10.1192 24.3703 10.463C24.7141 10.8068 25.1804 11 25.6666 11C26.1528 11 26.6192 10.8068 26.963 10.463C27.3068 10.1192 27.4999 9.6529 27.4999 9.16667C27.4999 8.68044 27.3068 8.21412 26.963 7.8703C26.6192 7.52649 26.1528 7.33333 25.6666 7.33333Z" fill="black"/>
</svg>
