<svg width="30" height="30" viewBox="0 0 30 30" fill="none" xmlns="http://www.w3.org/2000/svg">
<path fill-rule="evenodd" clip-rule="evenodd" d="M17.5 2.50003C18.4945 2.49108 19.4519 2.87758 20.1615 3.57451C20.8711 4.27145 21.2748 5.22172 21.2837 6.21628C21.2927 7.21084 20.9062 8.16822 20.2092 8.87782C19.5123 9.58741 18.562 9.99108 17.5675 10L17.295 10.8163C17.9396 11.2072 18.499 11.7236 18.9401 12.335C19.3811 12.9463 19.6948 13.6401 19.8625 14.375H21.5112C21.7984 13.717 22.3034 13.178 22.9412 12.8485C23.5791 12.519 24.311 12.4193 25.0138 12.5659C25.7166 12.7126 26.3474 13.0968 26.8003 13.6539C27.2531 14.211 27.5003 14.9071 27.5003 15.625C27.5003 16.343 27.2531 17.039 26.8003 17.5961C26.3474 18.1532 25.7166 18.5374 25.0138 18.6841C24.311 18.8308 23.5791 18.731 22.9412 18.4015C22.3034 18.0721 21.7984 17.533 21.5112 16.875H19.8612C19.6531 17.7868 19.2209 18.6323 18.6037 19.335L19.4837 20.215C20.1521 19.9528 20.8903 19.9286 21.5744 20.1467C22.2584 20.3647 22.8465 20.8117 23.2398 21.4123C23.633 22.013 23.8075 22.7308 23.7337 23.445C23.66 24.1591 23.3426 24.8261 22.835 25.3338C22.3273 25.8414 21.6603 26.1588 20.9461 26.2326C20.232 26.3063 19.5142 26.1318 18.9135 25.7386C18.3129 25.3453 17.8659 24.7572 17.6479 24.0732C17.4298 23.3891 17.454 22.6509 17.7162 21.9825L16.5487 20.815C15.8602 21.1028 15.1212 21.2507 14.375 21.25C13.5161 21.25 12.6686 21.0533 11.8975 20.675L10.8087 21.9825C11.2254 22.7628 11.3528 23.6652 11.1685 24.5303C10.9843 25.3954 10.5001 26.1675 9.80166 26.7102C9.1032 27.2529 8.2354 27.5312 7.35159 27.496C6.46778 27.4608 5.62486 27.1143 4.97178 26.5178C4.31869 25.9213 3.89749 25.1131 3.78259 24.2361C3.6677 23.3591 3.8665 22.4697 4.34388 21.7251C4.82126 20.9804 5.54649 20.4285 6.3914 20.1668C7.23632 19.9052 8.14653 19.9506 8.96121 20.295L9.95371 19.1025C9.17218 18.1121 8.74802 16.8867 8.74996 15.625C8.74996 14.7063 8.96996 13.84 9.35996 13.0738L8.27496 12.1688C7.63303 12.4904 6.89991 12.5812 6.1989 12.4259C5.49788 12.2705 4.87175 11.8785 4.4258 11.3158C3.97985 10.7531 3.74129 10.0539 3.75024 9.33595C3.75919 8.61799 4.01511 7.92501 4.47495 7.37356C4.93479 6.82211 5.5705 6.44584 6.27517 6.30802C6.97983 6.17019 7.71046 6.27924 8.34418 6.6168C8.9779 6.95437 9.47604 7.49987 9.75483 8.16155C10.0336 8.82324 10.076 9.56074 9.87496 10.25L10.9625 11.155C12.0917 10.2897 13.508 9.88653 14.9237 10.0275L15.1962 9.21003C14.5793 8.73019 14.1277 8.06958 13.9046 7.32056C13.6815 6.57153 13.698 5.77151 13.9518 5.03231C14.2056 4.29311 14.684 3.65168 15.3201 3.19767C15.9563 2.74365 16.7184 2.49974 17.5 2.50003ZM7.49996 22.5C7.16844 22.5 6.8505 22.6317 6.61608 22.8661C6.38166 23.1006 6.24996 23.4185 6.24996 23.75C6.24996 24.0816 6.38166 24.3995 6.61608 24.6339C6.8505 24.8683 7.16844 25 7.49996 25C7.83148 25 8.14943 24.8683 8.38385 24.6339C8.61827 24.3995 8.74996 24.0816 8.74996 23.75C8.74996 23.4185 8.61827 23.1006 8.38385 22.8661C8.14943 22.6317 7.83148 22.5 7.49996 22.5ZM20.625 22.5C20.4592 22.5 20.3002 22.5659 20.183 22.6831C20.0658 22.8003 20 22.9593 20 23.125C20 23.2908 20.0658 23.4498 20.183 23.567C20.3002 23.6842 20.4592 23.75 20.625 23.75C20.7907 23.75 20.9497 23.6842 21.0669 23.567C21.1841 23.4498 21.25 23.2908 21.25 23.125C21.25 22.9593 21.1841 22.8003 21.0669 22.6831C20.9497 22.5659 20.7907 22.5 20.625 22.5ZM14.375 12.5C13.5462 12.5 12.7513 12.8293 12.1653 13.4153C11.5792 14.0014 11.25 14.7962 11.25 15.625C11.25 16.4538 11.5792 17.2487 12.1653 17.8347C12.7513 18.4208 13.5462 18.75 14.375 18.75C15.2038 18.75 15.9986 18.4208 16.5847 17.8347C17.1707 17.2487 17.5 16.4538 17.5 15.625C17.5 14.7962 17.1707 14.0014 16.5847 13.4153C15.9986 12.8293 15.2038 12.5 14.375 12.5ZM24.375 15C24.2092 15 24.0502 15.0659 23.933 15.1831C23.8158 15.3003 23.75 15.4593 23.75 15.625C23.75 15.7908 23.8158 15.9498 23.933 16.067C24.0502 16.1842 24.2092 16.25 24.375 16.25C24.5407 16.25 24.6997 16.1842 24.8169 16.067C24.9341 15.9498 25 15.7908 25 15.625C25 15.4593 24.9341 15.3003 24.8169 15.1831C24.6997 15.0659 24.5407 15 24.375 15ZM6.87496 8.75003C6.7092 8.75003 6.55023 8.81588 6.43302 8.93309C6.31581 9.0503 6.24996 9.20927 6.24996 9.37503C6.24996 9.54079 6.31581 9.69976 6.43302 9.81697C6.55023 9.93418 6.7092 10 6.87496 10C7.04072 10 7.1997 9.93418 7.31691 9.81697C7.43412 9.69976 7.49996 9.54079 7.49996 9.37503C7.49996 9.20927 7.43412 9.0503 7.31691 8.93309C7.1997 8.81588 7.04072 8.75003 6.87496 8.75003ZM17.5 5.00003C17.1684 5.00003 16.8505 5.13173 16.6161 5.36615C16.3817 5.60057 16.25 5.91851 16.25 6.25003C16.25 6.58155 16.3817 6.89949 16.6161 7.13391C16.8505 7.36833 17.1684 7.50003 17.5 7.50003C17.8315 7.50003 18.1494 7.36833 18.3838 7.13391C18.6183 6.89949 18.75 6.58155 18.75 6.25003C18.75 5.91851 18.6183 5.60057 18.3838 5.36615C18.1494 5.13173 17.8315 5.00003 17.5 5.00003Z" fill="url(#paint0_linear_140_3940)"/>
<defs>
<linearGradient id="paint0_linear_140_3940" x1="15.6252" y1="2.49988" x2="15.6252" y2="27.499" gradientUnits="userSpaceOnUse">
<stop stop-color="#D9D9D9"/>
<stop offset="1" stop-color="#32AADF"/>
</linearGradient>
</defs>
</svg>
